<?xml version="1.0" standalone="no"?>
<!DOCTYPE svg PUBLIC "-//W3C//DTD SVG 20010904//EN"
 "http://www.w3.org/TR/2001/REC-SVG-20010904/DTD/svg10.dtd">
<svg version="1.0" xmlns="http://www.w3.org/2000/svg"
 width="700.000000pt" height="700.000000pt" viewBox="0 0 700.000000 700.000000"
 preserveAspectRatio="xMidYMid meet">
<metadata>
Created by potrace 1.11, written by Peter Selinger 2001-2013
</metadata>
<g transform="translate(0.000000,700.000000) scale(0.100000,-0.100000)"
fill="#000000" stroke="none">
<path d="M0 3500 l0 -3500 3500 0 3500 0 0 3500 0 3500 -3500 0 -3500 0 0
-3500z m5672 2560 c354 -76 614 -344 684 -705 25 -129 23 -320 -5 -455 -128
-617 -638 -1153 -1249 -1312 -98 -26 -142 -31 -272 -35 -180 -6 -263 4 -398
49 l-94 31 -209 -209 c-115 -115 -209 -211 -209 -214 0 -3 448 -453 995 -1000
547 -547 995 -999 995 -1005 0 -5 -91 -101 -202 -212 l-203 -203 -1002 1002
-1003 1003 -482 -480 c-266 -264 -718 -714 -1005 -1000 l-523 -520 -205 205
-205 205 1422 1422 1422 1422 -32 93 c-44 132 -55 204 -55 358 3 763 716 1514
1503 1583 79 7 242 -4 332 -23z m-3499 -1108 l1018 -1017 -413 -412 -413 -412
-651 647 c-694 690 -710 708 -799 894 -153 320 -153 685 0 1005 24 51 62 118
83 150 50 73 130 163 145 163 7 -1 470 -459 1030 -1018z"/>
</g>
</svg>
